<svg xmlns="http://www.w3.org/2000/svg" xmlns:xlink="http://www.w3.org/1999/xlink" width="99" height="30" viewBox="0 0 99 30"><defs><path id="gh2ra" d="M237.5 3068.61l2.1-10.23h-1.87l.78-3.74h1.86l.82-4.05c.15-.76.82-1.3 1.59-1.3h2.81l-1.08 5.35h2.97l-.78 3.74h-2.97l-2.08 10.23zm10.67-12.64c.16-.75.83-1.29 1.6-1.29h2.88l-1.53 7.66c-.06.28-.09.58-.09.89 0 1.14.84 2.03 2.43 2.03 1.42 0 2.56-.8 2.92-2.67l1.38-6.62c.15-.75.82-1.29 1.59-1.29h2.86l-1.65 8.1c-.44 2.2-1.34 3.8-2.7 4.8a7.93 7.93 0 0 1-4.74 1.48 6.58 6.58 0 0 1-4.62-1.58 5.3 5.3 0 0 1-1.7-4.03c0-.58.08-1.27.25-2.02zm21.84-1.58c2.34 0 4.15.89 4.56 1.91l1.18-5.72c.16-.75.82-1.3 1.6-1.3h2.75l-3.94 19.33h-4.03l.36-1.72c-.86 1.3-2.28 1.94-4.2 1.94a6.22 6.22 0 0 1-4.48-1.77 6.13 6.13 0 0 1-1.83-4.6c0-2.2.8-4.08 2.42-5.66a7.8 7.8 0 0 1 5.61-2.4zm2.5 9.72a3.8 3.8 0 0 0 1.25-2.86c0-1.76-1.44-2.97-3.5-2.97-1.16 0-2.17.38-2.99 1.18a3.7 3.7 0 0 0-1.21 2.72c0 1.8 1.38 3.06 3.5 3.06 1.15 0 2.14-.39 2.96-1.13zm10.15 4.38l-2.99-13.8h4.07l1.8 9.2 5.13-8.2a2.16 2.16 0 0 1 1.83-1h3.24L283.58 3074h-4.38zm12.17-2.54c0-.39.06-.85.18-1.46l2.93-14.36c.15-.75.81-1.29 1.58-1.29h1.88l-3.26 16c-.1.4-.1.68-.1.75 0 .62.38.93 1.13.93.2 0 .42-.02.63-.07l.8-.18-.6 2.97-.26.11c-.26.11-.55.16-1.02.16-2.32 0-3.89-1.43-3.89-3.56zm8.15 1.73a6.81 6.81 0 0 1-2.03-5.07c0-2.35.87-4.42 2.57-6.16a8.42 8.42 0 0 1 6.19-2.67c2.34 0 4.13.82 5.18 1.83.17-.82.9-1.41 1.74-1.41h1.77l-3.17 15.53H312l.26-1.26a6.7 6.7 0 0 1-4.06 1.16 7.29 7.29 0 0 1-5.23-1.95zm2.74-9.24a5.75 5.75 0 0 0-1.6 3.98c0 2.53 1.68 4.17 4.27 4.17a5.5 5.5 0 0 0 4.01-1.65 5.88 5.88 0 0 0 1.7-4.46c0-2.26-1.84-3.78-4.56-3.78-1.5 0-2.79.59-3.82 1.74zm-72.25 1.67c2.36.8 3.59 1.83 3.59 4.06 0 2.74-2.5 4.66-6.42 4.66a9.38 9.38 0 0 1-5.82-1.75l.73-3.65a7.7 7.7 0 0 0 5.3 1.92c1.42 0 2.17-.44 2.17-1.02 0-.66-1.09-.99-2.96-1.59-2.24-.8-3.28-1.81-3.28-3.79 0-1.29.59-2.41 1.74-3.32a6.7 6.7 0 0 1 4.3-1.4c1.94 0 3.43.39 4.46 1.15l-.7 3.52a6.34 6.34 0 0 0-3.2-1.09c-.75-.07-1.05-.6-1.06-1.15l-.02-1.49-.73 1.49c-.27.55-.8.97-1.4 1.1l-1.62.37 1.45.36c.53.14.86.56.87 1.1l.02 1.5.54-.84c.25-.4.73-.57 1.18-.42z"/><path id="gh2rb" d="M233.42 3047.62l.01 1.22.58-1.22c.21-.45.64-.8 1.11-.9l1.28-.3-1.14-.3a.9.9 0 0 1-.7-.9l-.01-1.22-.58 1.22c-.21.44-.64.8-1.1.9l-1.29.3 1.15.3c.41.1.68.45.69.9"/><path id="gh2rc" d="M228.1 3050.6a2 2 0 0 1-1.53-1.98l-.04-2.68-1.27 2.68a3.71 3.71 0 0 1-2.44 1.99l-2.82.65 2.52.66a2 2 0 0 1 1.52 1.99l.04 2.68 1.27-2.68a3.71 3.71 0 0 1 2.44-2l2.82-.65z"/></defs><g><g transform="translate(-220 -3044)"><g><use fill="#280082" xlink:href="#gh2ra"/></g><g><use fill="#00faa5" xlink:href="#gh2rb"/></g><g><use fill="#05d7f0" xlink:href="#gh2rc"/></g></g></g></svg>