<svg xmlns="http://www.w3.org/2000/svg" xmlns:xlink="http://www.w3.org/1999/xlink" width="164" height="50" viewBox="0 0 164 50"><defs><path id="3if1a" d="M249.19 61l3.47-17.04h-3.1l1.3-6.23h3.1l1.36-6.76a2.7 2.7 0 0 1 2.65-2.16h4.69l-1.8 8.92h4.94l-1.3 6.23h-4.94l-3.48 17.05zm17.77-21.05a2.7 2.7 0 0 1 2.66-2.15h4.8l-2.55 12.76c-.1.47-.14.97-.14 1.48 0 1.9 1.4 3.38 4.04 3.38 2.37 0 4.27-1.34 4.87-4.44l2.3-11.03a2.7 2.7 0 0 1 2.65-2.15h4.76l-2.74 13.5c-.74 3.66-2.23 6.34-4.5 8a13.22 13.22 0 0 1-7.9 2.46c-3.2 0-5.8-.88-7.7-2.64a8.83 8.83 0 0 1-2.84-6.7c0-.98.14-2.13.42-3.38zm36.4-2.64c3.9 0 6.9 1.48 7.6 3.19l1.97-9.54a2.7 2.7 0 0 1 2.64-2.15h4.61L313.6 61h-6.72l.6-2.86c-1.43 2.17-3.8 3.23-7 3.23-2.91 0-5.37-.97-7.45-2.95a10.22 10.22 0 0 1-3.06-7.67c0-3.65 1.34-6.8 4.03-9.43 2.74-2.68 5.84-4.02 9.36-4.02zm4.18 16.2a6.34 6.34 0 0 0 2.07-4.77c0-2.94-2.4-4.95-5.83-4.95a6.9 6.9 0 0 0-4.99 1.97 6.16 6.16 0 0 0-2.02 4.54c0 2.98 2.3 5.1 5.83 5.1a7.1 7.1 0 0 0 4.94-1.89zm16.9 7.3l-4.98-23.01h6.78l3 15.36 8.55-13.68a3.6 3.6 0 0 1 3.05-1.68h5.4L325.97 70h-7.3zm20.29-4.23c0-.65.1-1.43.3-2.43l4.87-23.94a2.7 2.7 0 0 1 2.64-2.15h3.14l-5.44 26.67a5.84 5.84 0 0 0-.16 1.25c0 1.03.63 1.55 1.87 1.55.35 0 .7-.04 1.05-.12l1.35-.3-1.02 4.96-.43.18c-.42.18-.91.26-1.69.26-3.88 0-6.48-2.38-6.48-5.93zm13.57 2.87a11.35 11.35 0 0 1-3.38-8.44c0-3.92 1.45-7.37 4.29-10.27a14.04 14.04 0 0 1 10.31-4.44c3.9 0 6.88 1.36 8.64 3.04a2.96 2.96 0 0 1 2.9-2.35H384l-5.28 25.9h-5.37l.44-2.11c-1.75 1.29-4.01 1.94-6.77 1.94-3.52 0-6.46-1.1-8.72-3.27zm4.57-15.39a9.59 9.59 0 0 0-2.66 6.64c0 4.22 2.8 6.94 7.12 6.94 2.6 0 4.85-.93 6.68-2.75 1.9-1.84 2.82-4.27 2.82-7.44 0-3.76-3.05-6.29-7.59-6.29-2.5 0-4.64.98-6.37 2.9zm-120.4 2.78c3.91 1.32 5.97 3.06 5.97 6.77 0 4.57-4.16 7.77-10.7 7.77-3.87 0-7.09-.96-9.7-2.92l1.21-6.09a12.82 12.82 0 0 0 8.82 3.2c2.39 0 3.64-.73 3.64-1.69 0-1.1-1.81-1.65-4.94-2.65-3.74-1.33-5.46-3.02-5.46-6.32 0-2.15.98-4.02 2.9-5.53a11.17 11.17 0 0 1 7.18-2.33c3.22 0 5.7.64 7.42 1.92l-1.17 5.85a10.56 10.56 0 0 0-5.34-1.8c-1.24-.12-1.75-1.02-1.76-1.93l-.03-2.48-1.22 2.48a3.53 3.53 0 0 1-2.33 1.84l-2.7.61 2.41.6c.88.23 1.44.94 1.46 1.85l.03 2.48.9-1.4a1.7 1.7 0 0 1 1.96-.7z"/><path id="3if1b" d="M242.35 26.03l.03 2.03.96-2.03a2.81 2.81 0 0 1 1.85-1.5l2.14-.5-1.91-.5a1.52 1.52 0 0 1-1.15-1.5l-.03-2.03-.96 2.03a2.81 2.81 0 0 1-1.85 1.5l-2.14.5 1.9.5c.7.18 1.15.76 1.16 1.5"/><path id="3if1c" d="M233.49 31a3.33 3.33 0 0 1-2.54-3.3l-.06-4.47-2.12 4.47a6.19 6.19 0 0 1-4.07 3.3l-4.7 1.1 4.2 1.1a3.33 3.33 0 0 1 2.54 3.3l.06 4.47 2.11-4.46a6.19 6.19 0 0 1 4.07-3.32l4.7-1.09z"/></defs><g><g transform="translate(-220 -20)"><g><use fill="#fff" xlink:href="#3if1a"/></g><g><use fill="#00faa5" xlink:href="#3if1b"/></g><g><use fill="#05d7f0" xlink:href="#3if1c"/></g></g></g></svg>